<?xml version="1.0" encoding="UTF-8" standalone="no"?>
<!-- Created with Inkscape (http://www.inkscape.org/) -->

<svg
   xmlns:dc="http://purl.org/dc/elements/1.1/"
   xmlns:cc="http://creativecommons.org/ns#"
   xmlns:rdf="http://www.w3.org/1999/02/22-rdf-syntax-ns#"
   xmlns:svg="http://www.w3.org/2000/svg"
   xmlns="http://www.w3.org/2000/svg"
   xmlns:sodipodi="http://sodipodi.sourceforge.net/DTD/sodipodi-0.dtd"
   xmlns:inkscape="http://www.inkscape.org/namespaces/inkscape"
   version="1.1"
   id="svg10"
   xml:space="preserve"
   width="742.05566"
   height="742.05566"
   viewBox="0 0 742.05567 742.05567"
   sodipodi:docname="icon.svg"
   inkscape:version="0.92.2 5c3e80d, 2017-08-06"
   inkscape:export-filename="/Users/bleper/code-priv/calbreakout/icon-32png.png"
   inkscape:export-xdpi="4.1399999"
   inkscape:export-ydpi="4.1399999"><metadata
     id="metadata16"><rdf:RDF><cc:Work
         rdf:about=""><dc:format>image/svg+xml</dc:format><dc:type
           rdf:resource="http://purl.org/dc/dcmitype/StillImage" /><dc:title></dc:title></cc:Work></rdf:RDF></metadata><defs
     id="defs14"><clipPath
       clipPathUnits="userSpaceOnUse"
       id="clipPath28"><path
         d="M 0,500 H 500 V 0 H 0 Z"
         id="path26"
         inkscape:connector-curvature="0" /></clipPath></defs><sodipodi:namedview
     pagecolor="#ffffff"
     bordercolor="#666666"
     borderopacity="1"
     objecttolerance="10"
     gridtolerance="10"
     guidetolerance="10"
     inkscape:pageopacity="0"
     inkscape:pageshadow="2"
     inkscape:window-width="1440"
     inkscape:window-height="855"
     id="namedview12"
     showgrid="false"
     inkscape:zoom="0.64"
     inkscape:cx="392.13164"
     inkscape:cy="410.53012"
     inkscape:window-x="0"
     inkscape:window-y="1"
     inkscape:window-maximized="1"
     inkscape:current-layer="g18"
     fit-margin-top="0"
     fit-margin-left="0"
     fit-margin-right="0"
     fit-margin-bottom="0" /><g
     id="g18"
     inkscape:groupmode="layer"
     inkscape:label="calender-2389150"
     transform="matrix(1.3333333,0,0,-1.3333333,-6.7155152,664.8589)"><g
       transform="matrix(1.3556649,0,0,-1.3556649,-158.52368,704.75543)"
       id="g5264"><rect
         style="fill:#cfd8dc"
         x="216.61"
         y="192.53999"
         width="308.04001"
         height="355.42999"
         ry="15.903"
         id="rect5236" /><rect
         style="fill:#f2f2f2"
         x="219.23"
         y="237.55"
         width="307.76001"
         height="307.76001"
         ry="12.974"
         id="rect5238" /><rect
         style="fill:#03a9f4"
         x="219.23"
         y="190.2"
         width="307.76001"
         height="72.206001"
         id="rect5240" /><path
         style="fill:#03a9f4;fill-rule:evenodd"
         inkscape:connector-curvature="0"
         d="m 526.99,262.4 4.1697,-5.0205 -4.9544,-0.89091 z"
         id="path5242" /><path
         style="fill:#26a69a"
         inkscape:connector-curvature="0"
         transform="translate(18.158,0.56237)"
         d="m 412.6,310.76 c -6.105,0 -13.227,1.357 -21.367,4.0703 -8.14,2.7133 -15.262,7.4628 -21.367,14.246 -5.4266,6.105 -9.4957,14.245 -12.209,24.42 -2.7133,9.4966 -3.0526,20.349 -1.0176,32.559 2.7133,12.21 9.4963,22.046 20.35,29.508 11.532,6.7833 25.776,8.8188 42.734,6.1055 -9.4966,20.35 -21.706,43.074 -36.629,68.172 h 22.385 c 26.455,-44.77 43.074,-74.277 49.857,-88.521 6.783,-14.244 10.174,-25.777 10.174,-34.596 0,-9.4966 -1.0178,-16.958 -3.0527,-22.385 -2.035,-6.105 -5.7648,-11.87 -11.191,-17.297 -5.4266,-5.4266 -11.531,-9.4976 -18.314,-12.211 -6.7833,-2.7133 -13.568,-4.0703 -20.352,-4.0703 z m -127.19,1.0176 c -10.853,15.602 -24.76,29.17 -41.719,40.701 v 19.332 c 13.567,-8.14 24.76,-16.619 33.578,-25.438 v 140.41 h 20.35 v -175.01 H 285.41 Z m 123.88,19.143 c 1.1871,-0.0424 2.2891,0.0218 3.3066,0.19141 6.7833,0 12.89,2.3728 18.316,7.1211 6.105,4.7483 9.8348,10.855 11.191,18.316 1.3567,6.7833 0.67817,15.261 -2.0352,25.436 -4.07,8.14 -8.4782,13.907 -13.227,17.299 -4.07,3.3916 -9.8352,5.4271 -17.297,6.1055 -7.4616,0.67833 -14.586,-1.6964 -21.369,-7.123 -6.105,-6.105 -9.8347,-13.566 -11.191,-22.385 -0.67833,-8.8183 0.67866,-17.298 4.0703,-25.438 4.07,-8.14 9.1568,-13.568 15.262,-16.281 5.0875,-2.035 9.4114,-3.115 12.973,-3.2422 z"
         id="path5244" /><path
         style="fill:#03a9f4;fill-rule:evenodd"
         inkscape:connector-curvature="0"
         d="m 223.41,185.17 -4.1327,5.0482 4.9174,0.86318 z"
         id="path5246" /><rect
         style="fill:#29b6f6"
         x="223.42"
         y="185.17"
         width="307.76001"
         height="72.206001"
         id="rect5248" /><g
         style="fill:#0277bd"
         transform="matrix(1.1718,0,0,1.1718,-177.31,61.426)"
         id="g5254"><rect
           x="381.5"
           y="89.862"
           width="29.989"
           height="51.070999"
           ry="4.1631999"
           id="rect5250" /><rect
           x="530.08002"
           y="89.862"
           width="29.989"
           height="51.070999"
           ry="4.1631999"
           id="rect5252" /></g><rect
         style="fill:#0288d1"
         x="271.82999"
         y="164.64"
         width="35.141998"
         height="59.846001"
         ry="4.8783998"
         id="rect5256" /><rect
         style="fill:#0288d1"
         x="445.92999"
         y="164.64"
         width="35.141998"
         height="59.846001"
         ry="4.8783998"
         id="rect5258" /><path
         style="fill:#cfd8dc;fill-rule:evenodd"
         inkscape:connector-curvature="0"
         d="m 527.07,476.56 -34.758,68.748 h 20.841 c 7.71,0 13.917,-6.207 13.917,-13.917 z"
         id="path5260" /><path
         style="fill:#b0bec5;fill-rule:evenodd"
         inkscape:connector-curvature="0"
         d="m 527.09,476.57 -34.803,68.725 -12.345,-16.792 c -4.5667,-6.2121 -3.2421,-14.89 2.97,-19.456 z"
         id="path5262" /></g><g
       transform="matrix(0.04210432,0,0,-0.04210432,1287.8879,807.71197)"
       id="g5041"><path
         style="fill:#ff0000"
         inkscape:connector-curvature="0"
         d="m -26276,20473 c -1465.9,51.796 -3304.2,-882.32 -3367.1,-3042.4 -49.049,-1683.1 -825.3,-2369.4 -825.3,-2369.4 1201.9,-140 1155.3,677.11 1477.6,672.97 0,0 286.64,-1421.1 -279.4,-2088.9 1101.9,-127.67 1249.4,1168.8 1405.3,888.25 12.92,-344.13 237.08,-1870 -517.09,-2827.7 0,0 629.36,9.368 1639.5,1021.3 -117.72,-608.36 -214.69,-1818.8 874.14,-3514.8 20.206,581.63 158.23,1822 606.58,2625.6 545.22,977.25 106.04,2131.8 547.56,2178.5 353.49,37.439 638.53,-1810.3 702.96,-2335.8 403.2,40.661 174.29,3053.9 557.63,3230.1 316.92,145.67 675.95,-1061.4 873.54,-1563.6 99.3,-252.34 431.83,2038.7 -93.123,2895.9 -368.64,601.93 835.91,-504.61 1836.7,-446.41 -492.44,296.48 -933.21,1219.2 -1135.3,2677.1 -96.671,697.45 -1354.9,2059.7 -2997.1,2014.8 -801.52,-21.924 -1213.5,15.876 -1307.1,-15.294 z"
         id="path5037" /><path
         style="fill:#ffff00"
         inkscape:connector-curvature="0"
         d="m -25233,20514 c 275.63,-22.965 1791.6,-811.58 1669.1,-1960 0,0 -375.16,290.94 -811.59,183.75 229.7,-382.83 1179.1,-1852.9 719.72,-2350.5 0,0 -918.78,1240.3 -1056.6,1033.6 -137.82,-206.72 267.98,-1891.1 38.277,-2197.4 0,0 -490,1209.7 -650.8,1110.2 -267.98,-160.78 -512.98,-1699.7 -597.2,-1898.8 0,0 -45.934,1944.7 -260.32,1730.4 -214.386,-214.3 -666.11,-1018.3 -735.02,-1286.3 -436.42,260.32 -200.47,2355.4 -1.393,2922 -627.84,-436.42 -833.17,-1030.8 -1330.8,-1390.7 0,0 -104.42,1515.1 592.33,2051 0,0 -347.34,108.12 -722.49,-22.041 -30.635,413.45 1071.9,2044.3 2097.9,2097.9 1026,53.603 1064.2,-7.663 1048.9,-22.97 z"
         id="path5039" /></g></g></svg>